<svg id="Layer_1" data-name="Layer 1" xmlns="http://www.w3.org/2000/svg" viewBox="0 0 180 180"><defs><style>.cls-1{fill:#88b7ce;}.cls-2{fill:#88b6cd;}</style></defs><title>icon</title><path class="cls-1" d="M47.42,92.51c-1.35-11.34.89-21.7,2.2-32.15,1.61-12.82,8.75-20.21,21.56-21.25,13.66-1.11,21.73,6.26,26,18.68,1.75,5.07,2.88,10.23-2.94,13-5.63,2.65-11.11,1.71-13.67-4.88-1.81-4.64-2.7-11.21-9.4-8.5-7.11,2.88-4.54,10.5-4.77,16.33-.23,5.61-.38,11.76,7.78,11.91,9.43.17,18.86.09,28.3,0,5.54,0,7.55-3.39,8-8.53.54-5.5,1.78-10.94,2.44-16.43,1.63-13.66,9.3-21.08,22.93-21.62,13.87-.56,21.14,7.76,25.14,20,1.77,5.43,1.42,10.27-4.59,12.27-5.15,1.71-10.18.64-12.39-5.15-1.77-4.63-2.4-11-9.26-9-5.85,1.73-5,7.93-5.05,12.87-.07,12.77-.38,25.56.08,38.31.32,9-2,16-11.73,16.76-9.91.73-7.27-7.86-7.54-13.3-.38-7.4-4.38-9.41-10.86-9.3-7.21.13-14.45.34-21.64-.07-8.5-.48-12.2,2.9-11.89,11.58.16,4.49,1.68,11.51-6.25,10.75-6.21-.59-11.89-4.09-12.42-11.38S47.42,99,47.42,92.51Z"/><path class="cls-2" d="M157.7,149.64c-30,.92-60-4.78-90,1.43a15,15,0,0,1-8.09-.74c-12.08-4.75-23.94-5.39-36.09-.11-5.6,2.43-11.43,2.28-13.26-5s2-10.79,9.4-12.45c12.94-2.92,25-3.29,38.69-2.39,20.07,1.33,42.52,5,61.17.07,16.57-4.38,28.67,1.53,42.68,3.05,6.11.66,7.93,5.64,6.81,11.23C167.79,151,163.32,152.21,157.7,149.64Z"/></svg>