<svg id="Layer_1" data-name="Layer 1" xmlns="http://www.w3.org/2000/svg" viewBox="0 0 180 180"><defs><style>.cls-1{fill:#8cb8cf;}.cls-2{fill:#89b7cf;}</style></defs><title>icon</title><path class="cls-1" d="M89.45,86.89c11.16-32.54,32.07-49.56,63-55,11.3-2,15.5,2.69,14.31,13.15-2,17.76-7.91,33.84-20.66,47.07-16.07,16.7-28.34,35.53-30.7,59.34-.43,4.36-1.14,8.33-6.62,8.37q-19.26.16-38.52,0c-6.66-.06-6.6-5.18-7.1-9.88C60.75,127.6,50.87,109.2,34.7,93.48,21.82,81,14.53,65.28,12.59,47.09c-1.31-12.33,2.57-17.56,15.61-15.2C58.66,37.4,78.13,55.31,89.45,86.89ZM69.22,80.67C64.69,63.88,52.07,55.4,37.33,49.44c-8.87-3.58-10.2,2.06-8.69,9A59,59,0,0,0,49,92.07c13.6,11.34,25.24,24.16,28.37,42.57,1.24,7.32,5.17,11.14,13.16,10.74,7.13-.36,9.69-3.75,11.27-10.52C105.84,117.31,115.5,103,130,92.11a49.82,49.82,0,0,0,15.07-18.85c3.46-7.24,9.86-16.58,3.7-22.51-7-6.78-14.38,2.56-21,6.45-9.24,5.43-15,13.54-18.49,23.55,9,4.89,14.33-6.06,22.12-2.92-21.38,24.68-60,25.86-79.51,2.69C57.45,76.6,62.71,84.3,69.22,80.67Z"/><path class="cls-2" d="M103,32.81c-.66,7.08-4.83,11.12-12.26,11.56-8.36.49-13.54-3.32-13.68-12-.11-7.56,4-11.84,11.7-12.34C97.46,19.48,101.2,24.74,103,32.81Z"/></svg>