<svg id="Layer_1" data-name="Layer 1" xmlns="http://www.w3.org/2000/svg" viewBox="0 0 180 180"><defs><style>.cls-1{fill:#87b6cd;}.cls-2{fill:#cfe6f0;}.cls-3{fill:#87b5cc;}</style></defs><title>icon</title><path class="cls-1" d="M88.46,142.64C54.35,142,30.87,124,13.16,96.35,9.8,91.11,9.81,86.79,13.09,81,45.15,24.42,131,21.41,165.48,76c5.82,9.21,6.46,18.85-.68,27.71C145.2,128,121,143.4,88.46,142.64ZM85.91,49.13C68.18,51.28,50,60,35.28,74.67c-5.89,5.89-11.12,14.76-4,23.3,33.66,40.35,82,43.13,117.36,3,4.62-5.25,8.87-12.2,2.43-20C134.93,61.34,114.84,49.83,85.91,49.13Z"/><path class="cls-2" d="M85.91,49.13c28.93.7,49,12.21,65.16,31.78,6.44,7.81,2.19,14.76-2.43,20-35.34,40.18-83.7,37.4-117.36-3-7.12-8.54-1.89-17.41,4-23.3C50,60,68.18,51.28,85.91,49.13Zm35.33,40.34c.9-13.19-4.51-22-16.5-28.25C78.83,47.62,82.63,89.56,61.32,84.1c-.43-.11-2.1,3.91-2.85,6.13a8.08,8.08,0,0,0,.17,3.67c2.44,14.24,20.94,27.5,36.21,26C110.48,118.32,120.76,106.48,121.24,89.47Z"/><path class="cls-3" d="M121.24,89.46c-.48,17-10.76,28.86-26.39,30.42-15.27,1.52-33.77-11.74-36.21-26a8.08,8.08,0,0,1-.17-3.67C59.22,88,60.89,84,61.32,84.1c21.31,5.46,17.51-36.48,43.42-22.88C116.73,67.51,122.14,76.28,121.24,89.46Z"/></svg>