<svg id="Layer_1" data-name="Layer 1" xmlns="http://www.w3.org/2000/svg" viewBox="0 0 180 180"><defs><style>.cls-1{fill:#f0c8ca;}.cls-2{fill:#d97b7e;}.cls-3{fill:#efc6c8;}.cls-4{fill:#eec1c3;}</style></defs><title>icon</title><path class="cls-1" d="M90.89,6c46.7,0,84.15,38,84.11,85.3,0,46.14-38.33,84.28-85,83.55-48.22-.76-83.49-37.08-84-84.54C5.45,42.51,46,5.36,90.89,6Zm8.88,54.6c-6.81-.34-6.16,4.48-5.39,8.53,1.56,8.12-.7,15-6,20.9-2.35,2.6-3.46,5.17-3,8.56,1,8.12,3.27,15.79,8.56,22.26,7.2,8.79,16.63,9.21,24.71,1.18,9.27-9.22,11.17-21,10.54-33.18-.49-9.58-2.7-19.28-10.06-26.06-7.56-7-17.89-9.06-27.3-12.56a10.18,10.18,0,0,0-7.16.58c-4.37,2.09-8.83,2.16-13.5,2.48C62.74,53.89,56.1,58,52.93,66c-3.24,8.21-2,16,4.85,22,3.08,2.7,3.91,5.72,4,9.66.13,8.21,1,16.38.36,24.65-.31,3.91,3.73,6.08,6.73,8,1.8,1.17,4.74,1.34,6.09-.63,3.11-4.51,7.67-8.32,7.38-14.67-.25-5.62.15-11.27-.11-16.88a12.63,12.63,0,0,1,4-10.41c5.58-5.57,7.43-12.57,4.7-20.16-1.18-3.3-2-8.18-6.15-8.32-4.6-.16-5.75,4.45-6.75,8.33A10.66,10.66,0,0,1,76.69,71,5.23,5.23,0,0,1,71,73.45a7.43,7.43,0,0,1-5.87-5.88c-.49-2.32.77-4.29,2.67-5.65,1.14-.8,2.37-1.85,3.88-.44,3.42,3.18,3.43,3.16,6.18-1,6-9.2,17.07-9.43,22.54-.48A7.8,7.8,0,0,1,99.77,60.64Z"/><path class="cls-2" d="M100.38,60c-5.47-9-16.54-8.72-22.54.48-2.75,4.2-2.76,4.22-6.18,1-1.51-1.41-2.74-.36-3.88.44-1.9,1.36-3.16,3.33-2.67,5.65A7.43,7.43,0,0,0,71,73.45,5.23,5.23,0,0,0,76.69,71,10.66,10.66,0,0,0,78,67.65c1-3.88,2.15-8.49,6.75-8.33,4.13.14,5,5,6.15,8.32,2.73,7.59.88,14.59-4.7,20.16a12.63,12.63,0,0,0-4,10.41c.26,5.61-.14,11.26.11,16.88.29,6.35-4.27,10.16-7.38,14.67-1.35,2-4.29,1.8-6.09.63-3-1.94-7-4.11-6.73-8,.64-8.27-.23-16.44-.36-24.65-.06-3.94-.89-7-4-9.66C50.89,82,49.69,74.23,52.93,66c3.17-8,9.81-12.13,18.19-12.69,4.67-.32,9.13-.39,13.5-2.48a10.18,10.18,0,0,1,7.16-.58c9.41,3.5,19.74,5.59,27.3,12.56,7.36,6.78,9.57,16.48,10.06,26.06.63,12.18-1.27,24-10.54,33.18-8.08,8-17.51,7.61-24.71-1.18-5.29-6.47-7.52-14.14-8.56-22.26-.43-3.39.68-6,3-8.56,5.32-5.89,7.58-12.78,6-20.9-.77-4-1.42-8.87,5.39-8.54,1.12,3.43,2.14,6.9,3.38,10.28a3.63,3.63,0,0,0,4,2.52,5.32,5.32,0,0,0,4.27-3.52c.63-1.43,0-4-.82-3.8C104.82,67.67,104.54,60.63,100.38,60Zm2.22,24c-4.28.85-7.21,3.79-7,9.34.14,3.77,10.22,16.56,13.07,16.68,3.45.15,13.66-13.46,13.4-17.86C121.65,85.45,117.25,83.5,102.6,84ZM74.32,98.12l-1.35,0v23.23l1.35-.09Z"/><path class="cls-3" d="M102.6,84c14.65-.48,19.05,1.47,19.45,8.16.26,4.4-10,18-13.4,17.86-2.85-.12-12.93-12.91-13.07-16.68C95.39,87.77,98.32,84.83,102.6,84Z"/><path class="cls-1" d="M100.38,60c4.16.67,4.44,7.71,10.21,6.15.81-.21,1.45,2.37.82,3.8a5.32,5.32,0,0,1-4.27,3.52,3.63,3.63,0,0,1-4-2.52c-1.24-3.38-2.26-6.85-3.38-10.28A6.47,6.47,0,0,0,100.38,60Z"/><path class="cls-4" d="M74.32,98.12v23.17l-1.35.09V98.15Z"/></svg>