<svg enable-background="new 0 0 612 211.4" viewBox="0 0 612 211.4" xmlns="http://www.w3.org/2000/svg"><g fill="#17141c"><path d="m206.7 107.7v-40.2h28.2v8.8h-17.3v6.9h15.6v8.8h-15.6v15.7z"/><path d="m296.3 87.6c0 4.5-.9 8.2-2.6 11.3s-4.1 5.4-7 7c-3 1.6-6.2 2.4-9.9 2.4s-7-.8-9.9-2.4-5.3-3.9-7-7-2.6-6.8-2.6-11.3.9-8.2 2.6-11.3 4.1-5.4 7-7 6.2-2.4 9.9-2.4c3.6 0 6.9.8 9.9 2.4s5.3 3.9 7 7c1.8 3.1 2.6 6.8 2.6 11.3zm-11.2 0c0-2.4-.3-4.4-1-6.1-.6-1.7-1.6-2.9-2.8-3.8s-2.8-1.3-4.6-1.3-3.3.4-4.6 1.3c-1.2.9-2.2 2.1-2.8 3.8s-1 3.7-1 6.1.3 4.4 1 6.1c.6 1.7 1.6 2.9 2.8 3.8s2.8 1.3 4.6 1.3 3.3-.4 4.6-1.3c1.2-.9 2.2-2.1 2.8-3.8.7-1.7 1-3.7 1-6.1z"/><path d="m329 67.5 6.6 11.7h.3l6.7-11.7h12.1l-12 20.1 12.5 20.1h-12.5l-6.8-11.9h-.3l-6.8 11.9h-12.4l12.3-20.1-11.9-20.1z"/><path d="m401.7 67.5h10.9v25.7c0 3.1-.7 5.7-2.2 7.9s-3.5 3.9-6.1 5.2c-2.6 1.2-5.6 1.8-9.1 1.8s-6.5-.6-9.1-1.8-4.6-2.9-6.1-5.2c-1.4-2.2-2.2-4.9-2.2-7.9v-25.7h10.9v24.8c0 1.2.3 2.3.8 3.3s1.3 1.7 2.3 2.3c1 .5 2.1.8 3.3.8 1.3 0 2.4-.3 3.3-.8 1-.5 1.7-1.3 2.3-2.3.5-1 .8-2.1.8-3.3v-24.8z"/><path d="m436.4 107.7v-40.2h17.3c3 0 5.6.5 7.8 1.6s4 2.6 5.2 4.7c1.2 2 1.9 4.5 1.9 7.3 0 2.9-.6 5.3-1.9 7.3s-3.1 3.5-5.3 4.5c-2.3 1-5 1.5-8 1.5h-10.4v-8.4h8.2c1.3 0 2.4-.2 3.3-.5s1.6-.8 2.1-1.5.7-1.6.7-2.8c0-1.1-.2-2.1-.7-2.8s-1.2-1.3-2.1-1.6-2-.5-3.3-.5h-3.8v31.4zm23.5-18.5 10 18.4h-11.8l-9.8-18.4z"/><path d="m502.7 67.5v40.1h-10.9v-40.1z"/><path d="m526.5 107.7v-40.2h28.9v8.8h-18v6.9h16.5v8.8h-16.5v6.9h17.9v8.8z"/><path d="m601 80.1c-.1-1.3-.6-2.3-1.5-3.1-.9-.7-2.2-1.1-3.9-1.1-1.1 0-2 .1-2.8.4-.7.3-1.2.6-1.6 1.1-.3.5-.5 1-.5 1.6 0 .5.1.9.3 1.3s.5.7 1 1c.4.3 1 .6 1.7.8s1.5.5 2.5.7l3.3.7c2.2.5 4.1 1.1 5.7 1.9s2.9 1.7 3.9 2.7 1.7 2.2 2.2 3.5.7 2.7.7 4.2c0 2.6-.7 4.9-2 6.7s-3.2 3.2-5.6 4.2-5.3 1.4-8.7 1.4c-3.5 0-6.5-.5-9.1-1.5s-4.6-2.6-6-4.8c-1.4-2.1-2.2-4.9-2.2-8.3h10.3c.1 1.2.4 2.3.9 3.1s1.3 1.5 2.3 1.9 2.2.6 3.6.6c1.2 0 2.1-.1 2.9-.4s1.4-.7 1.8-1.2.6-1.1.6-1.7-.2-1.2-.6-1.6c-.4-.5-1-.9-1.9-1.3s-2.1-.7-3.5-1l-4-.9c-3.6-.8-6.4-2.1-8.4-3.9s-3.1-4.3-3-7.4c0-2.5.7-4.8 2-6.7 1.4-1.9 3.3-3.4 5.7-4.5s5.3-1.6 8.4-1.6c3.2 0 6 .5 8.4 1.6s4.2 2.6 5.5 4.6 1.9 4.3 1.9 6.9h-10.3z"/></g><g fill="#86b5cc"><g clip-rule="evenodd" fill-rule="evenodd"><path d="m9.9 95.6c-5.5 0-9.9 4.4-9.9 9.9s4.4 9.9 9.9 9.9 9.9-4.4 9.9-9.9c0-5.4-4.4-9.9-9.9-9.9"/><circle cx="165.2" cy="105.6" r="9.9"/><circle cx="87.7" cy="201.5" r="9.9"/><circle cx="87.7" cy="9.9" r="9.9"/><path d="m9.9 47.1c-1.8 29.6 21.4 56 50.6 57.8 1.3-15.4-8.1-31.9-22.4-37.8 5.6 4.6 12.8 17.2 12.6 24.5-14.6-3.8-28.4-19.9-29.3-34.8 28.2 1.9 46 19 46 48.8 0 29.1-17 46.8-46 48.7.9-14.8 14.6-31 29.3-34.8.2 7.3-7.1 19.9-12.6 24.5 14.3-5.9 23.7-22.4 22.4-37.8-29.2 1.7-52.4 28.2-50.6 57.8 9 1.2 17.8.7 25.9-1.5-6.1 11.4-8.5 25-6.6 39 29.6 1.8 56-21.4 57.8-50.6-15.4-1.3-31.9 8.1-37.8 22.4 4.6-5.6 17.2-12.8 24.5-12.6-3.8 14.6-19.9 28.4-34.8 29.3 1.1-16.4 7.2-29 17.6-36.8l.4-.3c12.4-9.2 20.4-23.4 22.3-41.2h16.7c1.9 17.9 10.1 32.1 22.6 41.3.1.1.3.2.4.3 10.3 7.8 16.4 20.4 17.5 36.7-14.8-.9-31-14.6-34.8-29.3 7.3-.2 19.9 7.1 24.5 12.6-5.9-14.3-22.4-23.7-37.8-22.4 1.7 29.2 28.2 52.4 57.8 50.6 1.9-14-.5-27.5-6.6-38.9 8.1 2.1 16.8 2.7 25.7 1.4 1.8-29.6-21.4-56-50.6-57.8-1.3 15.4 8.1 31.9 22.4 37.8-5.6-4.6-12.8-17.2-12.6-24.5 14.6 3.8 28.4 19.9 29.3 34.8-29-1.9-46-19.6-46-48.7 0-29 17.5-46.9 46-48.8-.9 14.8-14.6 31-29.3 34.8-.2-7.3 7.1-19.9 12.6-24.5-14.3 5.9-23.7 22.4-22.4 37.8 29.2-1.7 52.4-28.2 50.6-57.8-8.8-1.2-17.5-.7-25.5 1.4 5.9-11.3 8.3-24.8 6.4-38.6-29.6-1.8-56 21.4-57.8 50.6 15.4 1.3 31.9-8.1 37.8-22.4-4.6 5.6-17.2 12.8-24.5 12.6 3.8-14.6 19.9-28.4 34.8-29.3-1.1 16.5-7.3 29.2-17.9 37 0 0-.1 0-.1.1-12.2 9.2-20.6 23.3-22.5 41h-16.7c-1.9-17.6-10.1-31.7-22.3-40.9l-.1-.1c-10.6-7.9-16.8-20.5-17.9-37 14.8.9 31 14.6 34.8 29.3-7.3.2-19.9-7.1-24.5-12.6 5.9 14.2 22.4 23.6 37.8 22.3-1.7-29.2-28.2-52.4-57.8-50.6-1.9 13.8.5 27.3 6.4 38.6-8.1-2.1-16.8-2.6-25.7-1.4z"/></g><path d="m214.1 144.5v-17.2h3.1v6.7h4.1v-6.7h3.1v17.2h-3.1v-6.7h-4.1v6.7z"/><path d="m252.5 135.9c0 1.9-.2 3.5-.7 4.8s-1.2 2.3-2 3-1.8 1-2.8 1-2-.3-2.8-1-1.5-1.7-2-3-.7-2.9-.7-4.8.2-3.5.7-4.8 1.2-2.3 2-3 1.8-1 2.8-1 2 .3 2.8 1 1.5 1.7 2 3c.4 1.3.7 2.9.7 4.8zm-3.2 0c0-1-.1-1.9-.3-2.6s-.4-1.2-.8-1.6-.8-.5-1.3-.5-.9.2-1.3.5c-.4.4-.6.9-.8 1.6s-.3 1.6-.3 2.6.1 1.9.3 2.6.4 1.2.8 1.6.8.5 1.3.5.9-.2 1.3-.5c.4-.4.6-.9.8-1.6s.3-1.5.3-2.6z"/><path d="m268.5 131.1v-3.8h10v3.8h-3.5v13.4h-3.1v-13.4z"/><path d="m295.1 144.5v-17.2h8.3v3.8h-5.1v3h4.7v3.8h-4.7v3h5.1v3.8h-8.3z"/><path d="m320.3 144.5v-17.2h3.1v13.4h4.6v3.8z"/><path d="m351 132.7c0-.6-.2-1-.4-1.3s-.6-.5-1.1-.5c-.3 0-.6.1-.8.2s-.4.3-.5.5-.1.4-.2.7c0 .2 0 .4.1.6s.2.3.3.4.3.3.5.4.4.2.7.3l.9.3c.6.2 1.2.5 1.6.8.5.3.8.7 1.1 1.2.3.4.5.9.6 1.5s.2 1.2.2 1.8c0 1.1-.2 2.1-.6 2.9s-.9 1.4-1.6 1.8-1.5.6-2.5.6-1.9-.2-2.6-.7c-.7-.4-1.3-1.1-1.7-2s-.6-2.1-.6-3.5h3c0 .5.1 1 .3 1.3.2.4.4.6.7.8s.6.3 1 .3c.3 0 .6-.1.8-.2s.4-.3.5-.5.2-.5.2-.7c0-.3-.1-.5-.2-.7s-.3-.4-.5-.5-.6-.3-1-.4l-1.1-.4c-1-.3-1.8-.9-2.4-1.7s-.9-1.8-.9-3.2c0-1.1.2-2 .6-2.9.4-.8.9-1.5 1.6-1.9.7-.5 1.5-.7 2.4-.7s1.7.2 2.4.7 1.2 1.1 1.6 2c.4.8.6 1.8.6 3h-3z"/><path d="m393 144.8c-.8 0-1.5-.2-2.1-.7-.6-.4-1-1-1.4-1.8-.3-.7-.5-1.5-.5-2.4 0-.6.1-1.2.2-1.7.2-.5.4-1 .7-1.4s.6-.8 1-1.2l2.6-2.4c.3-.2.4-.5.5-.8s.1-.5.1-.7c0-.3-.1-.5-.2-.7s-.3-.3-.6-.3c-.2 0-.3 0-.5.1-.1.1-.2.2-.3.4s-.1.4-.1.6c0 .3.1.7.2 1s.3.7.5 1.1.5.8.7 1.3l5.6 9.2h-3.1l-4.7-7.4c-.2-.4-.5-.8-.8-1.3s-.5-1.1-.7-1.8-.3-1.4-.3-2.2c0-.9.1-1.7.4-2.4s.7-1.3 1.2-1.7 1.1-.6 1.8-.6c.6 0 1.2.2 1.7.6s.8.9 1.1 1.6.4 1.4.4 2.2-.1 1.5-.4 2.2-.6 1.3-1.1 1.8l-2.4 2.5c-.2.2-.3.4-.5.7-.1.2-.2.6-.2 1 0 .3.1.6.2.8s.2.4.4.5.4.2.7.2c.4 0 .8-.1 1.1-.4.4-.3.7-.7 1-1.2s.6-1.1.8-1.8.3-1.4.3-2.2h2.4c0 1-.1 2-.2 2.9s-.4 1.8-.7 2.5c-.3.8-.7 1.4-1.2 1.9-.2.1-.3.2-.5.3-.1.1-.3.2-.5.3-.5.4-.9.8-1.4.9-.2.4-.7.5-1.2.5z"/><path d="m434.3 144.5v-17.2h4.9c.9 0 1.6.2 2.2.7s1.1 1.1 1.5 2 .5 1.9.5 3.1-.2 2.3-.5 3.1c-.4.8-.9 1.5-1.5 1.9-.7.4-1.4.6-2.3.6h-3v-3.6h2.3c.4 0 .7-.1.9-.2s.5-.4.6-.7.2-.7.2-1.2-.1-.9-.2-1.2-.3-.5-.6-.7c-.3-.1-.6-.2-.9-.2h-1.1v13.5h-3zm6.7-7.9 2.9 7.9h-3.4l-2.8-7.9z"/><path d="m460.3 144.5v-17.2h8.3v3.8h-5.1v3h4.7v3.8h-4.7v3h5.1v3.8h-8.3z"/><path d="m491.7 132.7c0-.6-.2-1-.4-1.3s-.6-.5-1.1-.5c-.3 0-.6.1-.8.2s-.4.3-.5.5-.1.4-.2.7c0 .2 0 .4.1.6s.2.3.3.4.3.3.5.4.4.2.7.3l.9.3c.6.2 1.2.5 1.6.8.5.3.8.7 1.1 1.2.3.4.5.9.6 1.5s.2 1.2.2 1.8c0 1.1-.2 2.1-.6 2.9s-.9 1.4-1.6 1.8-1.5.6-2.5.6-1.9-.2-2.6-.7c-.7-.4-1.3-1.1-1.7-2s-.6-2.1-.6-3.5h3c0 .5.1 1 .3 1.3.2.4.4.6.7.8s.6.3 1 .3c.3 0 .6-.1.8-.2s.4-.3.5-.5.2-.5.2-.7c0-.3-.1-.5-.2-.7s-.3-.4-.5-.5c-.3-.2-.6-.3-1-.4l-1.1-.4c-1-.3-1.8-.9-2.4-1.7s-.9-1.8-.9-3.2c0-1.1.2-2 .6-2.9.4-.8.9-1.5 1.6-1.9.7-.5 1.5-.7 2.4-.7s1.7.2 2.4.7 1.2 1.1 1.6 2c.4.8.6 1.8.6 3h-3z"/><path d="m522.6 135.9c0 1.9-.2 3.5-.7 4.8s-1.2 2.3-2 3-1.8 1-2.8 1-2-.3-2.8-1-1.5-1.7-2-3-.7-2.9-.7-4.8.2-3.5.7-4.8 1.2-2.3 2-3 1.8-1 2.8-1 2 .3 2.8 1 1.5 1.7 2 3 .7 2.9.7 4.8zm-3.2 0c0-1-.1-1.9-.3-2.6s-.4-1.2-.8-1.6-.8-.5-1.3-.5-.9.2-1.3.5c-.4.4-.6.9-.8 1.6s-.3 1.6-.3 2.6.1 1.9.3 2.6.4 1.2.8 1.6.8.5 1.3.5.9-.2 1.3-.5c.4-.4.6-.9.8-1.6s.3-1.5.3-2.6z"/><path d="m539.5 144.5v-17.2h4.9c.9 0 1.6.2 2.2.7s1.1 1.1 1.5 2 .5 1.9.5 3.1-.2 2.3-.5 3.1c-.4.8-.9 1.5-1.5 1.9-.7.4-1.4.6-2.3.6h-3v-3.6h2.3c.4 0 .7-.1.9-.2s.5-.4.6-.7.2-.7.2-1.2-.1-.9-.2-1.2-.3-.5-.6-.7c-.3-.1-.6-.2-.9-.2h-1.1v13.5h-3zm6.7-7.9 2.9 7.9h-3.4l-2.8-7.9z"/><path d="m565.1 131.1v-3.8h10v3.8h-3.4v13.4h-3.1v-13.4z"/><path d="m597.9 132.7c0-.6-.2-1-.4-1.3s-.6-.5-1.1-.5c-.3 0-.6.1-.8.2s-.4.3-.5.5-.1.4-.2.7c0 .2 0 .4.1.6s.2.3.3.4.3.3.5.4.4.2.7.3l.9.3c.6.2 1.2.5 1.6.8.5.3.8.7 1.1 1.2s.5.9.6 1.5.2 1.2.2 1.8c0 1.1-.2 2.1-.6 2.9s-.9 1.4-1.6 1.8-1.5.6-2.5.6-1.9-.2-2.6-.7c-.7-.4-1.3-1.1-1.7-2s-.6-2.1-.6-3.5h3c0 .5.1 1 .3 1.3.2.4.4.6.7.8s.6.3 1 .3c.3 0 .6-.1.8-.2s.4-.3.5-.5.2-.5.2-.7c0-.3-.1-.5-.2-.7s-.3-.4-.5-.5c-.2-.2-.6-.3-1-.4l-1.1-.4c-1-.3-1.8-.9-2.4-1.7s-.9-1.8-.9-3.2c0-1.1.2-2 .6-2.9.4-.8.9-1.5 1.6-1.9.7-.5 1.5-.7 2.4-.7s1.7.2 2.4.7 1.2 1.1 1.6 2 .6 1.8.6 3h-3z"/></g></svg>