<svg id="Layer_1" data-name="Layer 1" xmlns="http://www.w3.org/2000/svg" viewBox="0 0 180 180"><defs><style>.cls-1{fill:#85b4cc;}.cls-2{fill:#85b5cc;}.cls-3{fill:#85b4cb;}.cls-4{fill:#87b6cc;}.cls-5{fill:#86b5cc;}</style></defs><title>icon</title><path class="cls-1" d="M115.07,84.78c3.27-8.47-6.3-22.77,12.12-23.5,14.87-.6,27.3-1.76,29.16,20.2,1.49,17.52,14.34,33,17.48,51.08,4.16,24-2.56,33.66-23.57,34.57-15.91.69-24.43-4.44-23.22-22.3.92-13.66,3.34-27.9-9.59-39.48C113.58,101.89,115.69,91.75,115.07,84.78Z"/><path class="cls-2" d="M81.29,87.21c-3.16,21.59-10,43-10.09,65.91,0,14.59-16.09,14.06-27.9,13.85C32,166.76,26.91,162.14,25,149.51,20.5,120.38,38.88,97.39,43.63,70.78,45.94,57.82,62,59.72,72.44,62,86.75,65.1,77.36,78.33,81.29,87.21Z"/><path class="cls-3" d="M107.7,85.91c0,3.89-.08,7.78,0,11.67.13,7-2.68,10.9-10.31,10.67-8.17-.24-9.22-5.48-9.19-11.86,0-7.14,0-14.27,0-21.4,0-6.63-.33-13.34,9.39-13.56,9.39-.22,10.27,5.74,10.15,12.81C107.66,78.13,107.72,82,107.7,85.91Z"/><path class="cls-4" d="M131.13,53.43c-7.82-.15-15.79,1-15.35-10.19s8.89-9.06,15.67-9.33c7.75-.31,15,1.29,15,11C146.36,56.6,136.7,52.23,131.13,53.43Z"/><path class="cls-5" d="M67.94,53.36C60.11,53.42,52.65,54,53,43c.33-9.85,7.29-9,13.75-9.09s13.35-.41,13.46,9.39C80.34,52.57,74.59,53.7,67.94,53.36Z"/></svg>